<?xml version="1.0"?><svg version="1.2" baseProfile="tiny-ps" viewBox="0 0 238 238" xmlns="http://www.w3.org/2000/svg" xmlns:xlink="http://www.w3.org/1999/xlink"><title>simulia</title><g><g fill="#86a0a6" transform="matrix(.1 0 0 -.1 0 238)"><path d="M613 2202c-18-11-21-23-148-477-64-231-119-428-121-437l-5-17 20-20 21-21h927l16 18 15 17 121 431 121 430v63l-19 11-20 10H625l-12-8zm991-422-22-9-16-48c-8-26-40-137-70-245l-56-197 6-16c4-9 15-20 25-25l18-10h489l11 14c7 8 41 116 77 241l65 228-3 26-3 26-25 12-25 13-225-1h-225l-21-9zM297 1078l-17-13-65-227c-36-125-65-238-65-252v-25l22-15 22-16h476l18 18 19 19 61 219 62 219v65l-26 10-25 10H314l-17-12zm665-5-21-18-121-431c-66-236-120-444-120-460v-30l12-12 12-12h933l16 18 16 17 125 447 126 447-6 16c-4 8-15 20-25 25l-18 10H982l-20-17z"/></g><g fill="#7da1a7" transform="matrix(.1 0 0 -.1 0 238)"><path d="m624 2198-7-11 13 8c8 5 1-8-14-28l-28-36 7-10 6-11-13 5-13 5-2-42c-2-23-7-46-12-51l-9-9 5-14 5-14-12-15-12-15h8c4 0-1-7-12-15l-19-14 10-1h11v-22c0-13-5-26-10-30l-11-8h26l-15-16-16-16 5-9 6-9h-31l-1-27c-2-42-3-46-18-72l-13-23 9 5 10 6v-28l-10 6-10 6 6-33 7-32-18 6-17 6 17-13 16-13-22-21-22-21 1-36 2-35-8 5-8 4-6-45-7-45-12 7-11 7 14-17 13-17h-24l11-14 12-14-17-10-17-9 6-23 6-23-9-17-9-16 9-15 9-14h886l12-8 12-7 15 22c9 12 16 28 16 36v13l10-6 10-6v10c0 6-5 11-11 11h-10l20 29 21 29v25c0 14 4 28 9 32l10 5-4 20-4 20 10 5 9 6-10 19-10 20 16-7 17-6-7 12-8 12 14 16 13 17-12-8-13-7v10c0 6 5 11 11 11h10l-7 12-7 11 11-7 11-6 6 10c3 5 8 26 9 45 2 19 10 43 17 52l14 17-14-8-13-8 18 28 19 28-12-7-11-7-5 12-5 13 26 28 26 27h-27l16 18 17 19-7 7c-4 3-8 14-9 22l-2 16 14-6 15-6-6 9-5 10 10 6 10 6v72l18 14c9 8 11 12 5 8l-13-6v8c0 5 5 14 12 21l12 12h-19l12 8 12 8-14 27-14 27 14 7 14 8 5 29c3 16 3 26-1 23-3-4-14 4-23 16l-19 22-6-17-7-18h-19c-24 0-25 17-1 23 9 3-167 4-393 3l-410-1 370-2 369-3 8-8 7-7-391 1-392 1-4 11c-5 15-19 15-28 0zm13-144c-3-3-10-3-15 0l-10 6 6 22 5 22 10-22c6-12 7-25 4-28zm-40-251c-4-20-11-41-16-46l-11-11-7 7-7 7 12 12 12 12v56h23l-6-37zm-143-231 5-9h-28l5 9c3 4 7 8 9 8s6-4 9-8zm1143 187-18-10 7-21 6-21-9 6-10 6 2-22 2-22-16-13-16-13 13 6 12 6v-9c0-5-3-12-7-16s-8-17-8-29v-22l-12 3c-7 1-12-1-11-5 2-9-11-88-18-116-3-9-9-15-13-13l-7 4 2-26 1-27-11-7-11-8h30l-15-10-15-10h24l-17-29c-9-16-19-28-22-26s-7-9-8-24l-2-28 42-8c24-4 129-8 233-9 105-1 201-6 215-10l25-7-15 10-15 11h20c12 0 26 5 33 12l12 12v59l18 20 17 20-12-7-13-7 9 24c6 14 7 28 4 31s-1 11 4 18c6 7 9 23 8 35l-2 23 16-13 15-12-8 13-8 13 12 13 11 14-6 25-7 25 21 14c12 8 19 17 16 20s-8 16-10 28-2 20 2 17c3-4 12 1 19 11l12 17-9 17-10 18h9c13 0 10 33-4 47l-13 13h-238l-238-1-18-10zm383-228v-40l-10-6-10-6v91h20v-39zm-433-263-5-13v50l5-12c2-7 2-19 0-25zm-1198 25-14-18 18 14c9 7 17 15 17 17 0 8-8 3-21-13zm-46-225c-2-5-1-13 2-18l6-10-11 2-12 3-3-15c-2-8-6-23-10-32l-7-18h26l-20-16-19-15 15 6 15 6-16-13-16-13-9-45c-4-25-8-53-7-62v-17l-11 2-11 2 3-14c1-7-3-20-10-28l-12-15 15-9 14-9h-30l15-10 15-10h-27l5-19 5-20-14 6-14 5-8-23c-5-13-9-44-8-69l1-45 238-3 237-2v24l12-12c7-7 17-12 23-12h10l-15 10-15 10h45l2 13c2 22 5 32 15 57 6 14 8 31 5 38l-4 13 18 20 18 20-20-6-19-6 25 15 25 15-13 1h-13l11 19c12 23 13 34 2 27-4-2-14 0-22 6l-15 10 17-5 16-6 19 21 18 21-14-8-14-8 16 24 17 23v67l10-6 10-6-6 16-6 15 11 14 11 13-7 6-6 7h22l-4 22c-3 12-10 28-17 34l-13 13-243 3-244 3-5-7zm397-182c0-8-4-18-10-21l-10-6v41h10c6 0 10-6 10-14zM280 769v-39h-20v91l10-6 10-6v-40zm-46-135 6-15-10 6c-6 3-10 10-10 16 0 14 7 11 14-7zm723 416-17-20-4-41-4-42-14-8-13-9h19l-12-12-11-11 11-20 10-20-13 5-14 5-1-21c-1-20-10-68-14-73-1-2-2-15-3-30 0-16-4-31-9-34-4-3-9-24-11-46l-2-41-7 5-8 4v-32l12 7 11 7-7-12-8-12-14 5-13 5-10-37c-6-20-12-49-15-64-2-14-9-35-14-45s-8-29-7-43-2-31-7-37l-10-13 6-16 6-16-13 5-14 5v-27l10 6c6 4 3-4-6-18l-17-23v-65l-16-15-15-16h22l-11-19c-13-25-13-34 0-26l10 6v-23l15 5 14 6 7-11 7-11-11 7-11 6-6-10-6-10h18c11 0 24 5 31 12l12 12v-24h776l13 13 14 12-6-10-5-10 31-1c18-1 26 1 20 3-7 3-13 9-13 14v10l9-5c5-4 21-2 36 4l26 10-6 11-7 10 17 19 16 18-12 8-12 7 7-11 6-11-9-5-9-6 2 14c1 8 7 20 12 27 6 8 14 24 17 36l5 23-9 6-10 6 12 15 13 15-15 8-14 9 14 13 14 13-7-12-7-13h33l-6 16-6 15 10-6 10-6 1 8c1 4 2 23 4 42l3 33 11 7 11 7-5 22-4 22h18l-5 15-6 15h27l-13 8-12 8 22 45c12 24 23 51 23 59 3 40 18 100 24 96l7-4-2 49-1 50 9 5 8 5-6 11-7 11 9-5 9-6 13 14c7 8 10 14 6 14-3 0 0 8 7 17l14 17-20-7-20-7 18 14 17 13v20c0 10 5 24 12 31l12 12h-8c-5 0-2 8 5 17l14 17-11-7-12-7-5 20-5 20H974l-17-20zm663-680v-20h-20v40h20v-20zm47-86c2-5-3-19-12-29l-14-20-1 33v34l12-4c6-2 13-9 15-14zm193 556c0-5 5-10 11-10h10l-6 10c-3 6-8 10-11 10-2 0-4-4-4-10z"/></g></g></svg>